<?xml version="1.0" encoding="utf-8"?>
<!-- Generator: Adobe Illustrator 16.0.0, SVG Export Plug-In . SVG Version: 6.00 Build 0)  -->
<!DOCTYPE svg PUBLIC "-//W3C//DTD SVG 1.1//EN" "http://www.w3.org/Graphics/SVG/1.1/DTD/svg11.dtd">
<svg version="1.1" id="圖層_1" xmlns="http://www.w3.org/2000/svg" xmlns:xlink="http://www.w3.org/1999/xlink" x="0px" y="0px"
	 width="595.281px" height="841.89px" viewBox="0 0 595.281 841.89" enable-background="new 0 0 595.281 841.89"
	 xml:space="preserve">
<path opacity="0.79" d="M255.38,421.22L224,480l-31.38-58.779L208,352l-17.79-35.58c22.274,4.773,45.306,4.773,67.58,0L240,352
	L255.38,421.22z M224,288c70.385,0.001,127.566-56.826,128-127.21c-7.49,1.54-15.51,3-24,4.2v6.59c-0.109,0.11-6.07,3.47-6.93,6.28
	c-4.23,12.9-7.59,26.65-17.879,36.19c-10.941,10.07-52.001,24.26-69.331-27.09c-3-9.1-16.69-9.1-19.83,0
	c-18.41,54.39-60.66,35.1-69.33,27.09c-10.29-9.54-13.76-23.29-17.88-36.19c-0.86-2.7-6.82-6.17-6.82-6.28V165
	c-8.48-1.25-16.5-2.66-24-4.2C96.44,231.18,153.619,288.001,224,288z"/>
<path d="M120,165v6.59c0,0.11,6,3.58,6.82,6.28c4.12,12.9,7.59,26.65,17.88,36.19c8.67,8,50.92,27.3,69.33-27.09
	c3.14-9.1,16.79-9.1,19.83,0c17.33,51.35,58.39,37.16,69.331,27.09c10.289-9.54,13.648-23.29,17.879-36.19
	c0.859-2.81,6.82-6.17,6.93-6.28V165c52.951-7.83,88-21.47,88-37c0-13.75-27.51-26-70.6-34.09c-9.35-32.11-26.689-64.08-40-80.72
	c-9.427-11.909-25.91-15.581-39.5-8.8l-27.6,13.8c-9.003,4.497-19.597,4.497-28.6,0l-27.6-13.8c-13.591-6.781-30.073-3.109-39.5,8.8
	c-13.22,16.64-30.6,48.61-40,80.72C59.51,102,32,114.25,32,128C32,143.52,67.05,157.16,120,165z M383.9,308.27l23.9-62.58
	c3.148-8.257-0.994-17.502-9.25-20.65c-1.836-0.7-3.785-1.056-5.75-1.049h-32.121L224,480L87.32,224h-31
	c-8.836,0.004-15.997,7.171-15.992,16.007c0.001,2.164,0.44,4.304,1.292,6.292l25.74,60.06C25.697,330.137-0.015,374.43,0,422.4V464
	c0,26.51,21.49,48,48,48l0,0h352c26.51,0,48-21.49,48-48l0,0v-41.6C448.031,375.773,423.732,332.509,383.9,308.27z"/>
</svg>
